<?xml version="1.0" encoding="UTF-8" standalone="no" ?>
<!DOCTYPE svg PUBLIC "-//W3C//DTD SVG 1.1//EN" "http://www.w3.org/Graphics/SVG/1.1/DTD/svg11.dtd">
<svg xmlns="http://www.w3.org/2000/svg" xmlns:xlink="http://www.w3.org/1999/xlink" version="1.1" width="1080" height="400" viewBox="0 0 1080 400" xml:space="preserve">
<desc>Created with Fabric.js 5.2.4</desc>
<defs>
</defs>
<g transform="matrix(1 0 0 1 540 200)" id="6820b617-a3af-4a60-83eb-3791bc443532"  >
<rect style="stroke: none; stroke-width: 1; stroke-dasharray: none; stroke-linecap: butt; stroke-dashoffset: 0; stroke-linejoin: miter; stroke-miterlimit: 4; fill: rgb(255,255,255); fill-rule: nonzero; opacity: 1; visibility: hidden;" vector-effect="non-scaling-stroke"  x="-540" y="-200" rx="0" ry="0" width="1080" height="400" />
</g>
<g transform="matrix(Infinity NaN NaN Infinity 0 0)" id="5b268d19-8d9b-4e7f-81c6-408cedde8b18"  >
</g>
<g transform="matrix(1.09 0 0 1.09 540 200)"  >
<g style="" vector-effect="non-scaling-stroke"   >
		<g transform="matrix(1 0 0 1 0 0)"  >
<rect style="stroke: none; stroke-width: 1; stroke-dasharray: none; stroke-linecap: butt; stroke-dashoffset: 0; stroke-linejoin: miter; stroke-miterlimit: 4; fill: rgb(255,255,255); fill-rule: nonzero; opacity: 1; visibility: hidden;" vector-effect="non-scaling-stroke"  x="-540" y="-225" rx="0" ry="0" width="1080" height="450" />
</g>
		<g transform="matrix(3.23 0 0 3.23 152.42 0)"  >
<path style="stroke: none; stroke-width: 1; stroke-dasharray: none; stroke-linecap: butt; stroke-dashoffset: 0; stroke-linejoin: miter; stroke-miterlimit: 4; fill: rgb(255,255,255); fill-rule: nonzero; opacity: 1;" vector-effect="non-scaling-stroke"  transform=" translate(-100.56, 16.15)" d="M 10.57 -5.86 L 20.53 -5.86 Q 22.05 -5.86 22.630000000000003 -6.15 L 22.630000000000003 -6.15 L 22.730000000000004 -6.130000000000001 L 22.490000000000006 -8.881784197001252e-16 L 4.200000000000006 -8.881784197001252e-16 L 4.200000000000006 -32.64 Q 4.8600000000000065 -32.59 5.660000000000006 -32.57 L 5.660000000000006 -32.57 L 7.370000000000006 -32.52 Q 9.080000000000005 -32.470000000000006 11.080000000000005 -32.470000000000006 L 11.080000000000005 -32.470000000000006 Q 16.670000000000005 -32.470000000000006 22.140000000000008 -32.67000000000001 L 22.140000000000008 -32.67000000000001 Q 21.880000000000006 -30.52000000000001 21.880000000000006 -26.930000000000007 L 21.880000000000006 -26.930000000000007 Q 21.880000000000006 -26.540000000000006 21.920000000000005 -26.340000000000007 L 21.920000000000005 -26.340000000000007 L 21.880000000000006 -26.270000000000007 Q 20.610000000000007 -26.640000000000008 18.260000000000005 -26.640000000000008 L 18.260000000000005 -26.640000000000008 L 10.570000000000004 -26.640000000000008 L 10.570000000000004 -20.410000000000007 L 16.360000000000003 -20.410000000000007 Q 19.040000000000003 -20.410000000000007 19.580000000000002 -20.560000000000006 L 19.580000000000002 -20.560000000000006 L 19.650000000000002 -14.530000000000005 Q 18.480000000000004 -14.650000000000004 16.630000000000003 -14.650000000000004 L 16.630000000000003 -14.650000000000004 L 10.570000000000004 -14.650000000000004 L 10.570000000000004 -5.860000000000005 z M 35.230000000000004 0 L 24.950000000000003 -25.51 L 31.860000000000003 -25.51 L 37.81 -8.720000000000002 L 43.58 -25.51 L 50.339999999999996 -25.51 L 40.26 0 L 35.23 0 z M 52.580000000000005 -12.55 L 52.580000000000005 -12.55 Q 52.580000000000005 -15.41 53.56 -17.85 Q 54.54 -20.290000000000003 56.32 -22.12 L 56.32 -22.12 Q 60.13 -26 66.28 -26 L 66.28 -26 Q 71.48 -26 74.63 -22.56 L 74.63 -22.56 Q 77.72999999999999 -19.24 77.72999999999999 -14.209999999999999 L 77.72999999999999 -14.209999999999999 Q 77.72999999999999 -12.28 77.43999999999998 -11.569999999999999 L 77.43999999999998 -11.569999999999999 Q 74.99999999999999 -10.889999999999999 67.49999999999999 -10.889999999999999 L 67.49999999999999 -10.889999999999999 L 58.90999999999998 -10.889999999999999 Q 59.539999999999985 -8.28 61.859999999999985 -6.8199999999999985 Q 64.17999999999998 -5.369999999999998 67.88999999999999 -5.369999999999998 L 67.88999999999999 -5.369999999999998 Q 71.76999999999998 -5.369999999999998 74.55999999999999 -6.759999999999998 L 74.55999999999999 -6.759999999999998 Q 75.28999999999999 -7.129999999999998 75.64999999999999 -7.4499999999999975 L 75.64999999999999 -7.4499999999999975 Q 75.60999999999999 -6.419999999999997 75.52999999999999 -5.349999999999998 L 75.52999999999999 -5.349999999999998 L 75.25999999999999 -1.5399999999999978 Q 73.41 -0.2699999999999978 69.25999999999999 0.2200000000000022 L 69.25999999999999 0.2200000000000022 Q 68.03999999999999 0.3700000000000022 66.91 0.3700000000000022 L 66.91 0.3700000000000022 Q 60.709999999999994 0.3700000000000022 56.66 -3.249999999999998 L 56.66 -3.249999999999998 Q 52.58 -6.879999999999997 52.58 -12.549999999999999 z M 71.24000000000001 -15.63 L 71.24000000000001 -15.63 Q 70.23 -20.87 65.52000000000001 -20.87 L 65.52000000000001 -20.87 Q 61.81000000000001 -20.87 59.88000000000001 -17.68 L 59.88000000000001 -17.68 Q 59.30000000000001 -16.7 58.98000000000001 -15.53 L 58.98000000000001 -15.53 Q 59.570000000000014 -15.5 60.42000000000001 -15.479999999999999 L 60.42000000000001 -15.479999999999999 L 62.23000000000001 -15.479999999999999 Q 63.13000000000001 -15.45 63.96000000000001 -15.45 L 63.96000000000001 -15.45 L 65.35000000000001 -15.45 Q 66.60000000000001 -15.45 67.79 -15.479999999999999 L 67.79 -15.479999999999999 L 69.79 -15.549999999999999 Q 70.60000000000001 -15.579999999999998 71.24000000000001 -15.629999999999999 z M 89.45000000000002 -17.07 L 89.45000000000002 -3.130000000000001 Q 89.45000000000002 -0.9800000000000009 89.64000000000001 -8.881784197001252e-16 L 89.64000000000001 -8.881784197001252e-16 L 83.51000000000002 -8.881784197001252e-16 L 83.51000000000002 -25.51 L 89.45000000000002 -25.51 L 89.45000000000002 -23.340000000000003 Q 92.67000000000002 -26.000000000000004 96.33000000000001 -26.000000000000004 L 96.33000000000001 -26.000000000000004 Q 100.33000000000001 -26.000000000000004 102.73000000000002 -23.280000000000005 Q 105.12000000000002 -20.560000000000006 105.12000000000002 -16.110000000000007 L 105.12000000000002 -16.110000000000007 L 105.12000000000002 -6.400000000000006 Q 105.12000000000002 -2.270000000000006 105.24000000000002 -1.4400000000000057 Q 105.36000000000003 -0.6100000000000058 105.57000000000002 -0.37000000000000566 Q 105.78000000000002 -0.12000000000000566 105.93000000000002 0.06999999999999434 L 105.93000000000002 0.06999999999999434 L 105.88000000000002 0.16999999999999435 Q 103.90000000000002 -5.662137425588298e-15 103.00000000000003 -5.662137425588298e-15 L 103.00000000000003 -5.662137425588298e-15 L 101.29000000000003 -5.662137425588298e-15 Q 100.51000000000003 -5.662137425588298e-15 99.19000000000004 0.06999999999999434 L 99.19000000000004 0.06999999999999434 L 99.19000000000004 -13.230000000000006 Q 99.19000000000004 -20.390000000000008 94.84000000000005 -20.390000000000008 L 94.84000000000005 -20.390000000000008 Q 91.62000000000005 -20.390000000000008 89.45000000000005 -17.070000000000007 L 89.45000000000005 -17.070000000000007 z M 123.57000000000002 -5.370000000000001 L 123.57000000000002 -5.370000000000001 Q 126.72000000000003 -5.370000000000001 127.90000000000002 -7.010000000000001 L 127.90000000000002 -7.010000000000001 L 128.09000000000003 -7.010000000000001 L 128.16000000000003 -1.3400000000000007 Q 126.97000000000003 -0.1500000000000008 123.72000000000003 0.23999999999999932 L 123.72000000000003 0.23999999999999932 Q 122.84000000000003 0.36999999999999933 121.54000000000002 0.36999999999999933 Q 120.23000000000002 0.36999999999999933 118.70000000000002 -0.12000000000000066 Q 117.18000000000002 -0.6100000000000007 116.10000000000002 -1.7100000000000009 L 116.10000000000002 -1.7100000000000009 Q 113.88000000000002 -3.980000000000001 113.88000000000002 -8.81 L 113.88000000000002 -8.81 L 113.88000000000002 -19.9 L 110.20000000000002 -19.9 Q 110.17000000000002 -20.61 110.17000000000002 -21.34 L 110.17000000000002 -21.34 L 110.17000000000002 -25.1 Q 110.17000000000002 -25.51 110.20000000000002 -25.51 L 110.20000000000002 -25.51 L 113.88000000000002 -25.51 L 113.88000000000002 -32.47 L 119.86000000000003 -32.47 L 119.86000000000003 -25.509999999999998 L 126.58000000000003 -25.509999999999998 L 126.58000000000003 -19.9 L 119.86000000000003 -19.9 L 119.86000000000003 -9.939999999999998 Q 119.86000000000003 -6.099999999999998 121.99000000000002 -5.569999999999998 L 121.99000000000002 -5.569999999999998 Q 122.67000000000003 -5.369999999999997 123.57000000000002 -5.369999999999997 z M 144.45000000000002 -5.370000000000001 L 144.45000000000002 -5.370000000000001 Q 147.59 -5.370000000000001 148.77 -7.010000000000001 L 148.77 -7.010000000000001 L 148.96 -7.010000000000001 L 149.04000000000002 -1.3400000000000007 Q 147.84000000000003 -0.1500000000000008 144.59000000000003 0.23999999999999932 L 144.59000000000003 0.23999999999999932 Q 143.71000000000004 0.36999999999999933 142.41000000000003 0.36999999999999933 Q 141.10000000000002 0.36999999999999933 139.57000000000002 -0.12000000000000066 Q 138.05 -0.6100000000000007 136.97000000000003 -1.7100000000000009 L 136.97000000000003 -1.7100000000000009 Q 134.75000000000003 -3.980000000000001 134.75000000000003 -8.81 L 134.75000000000003 -8.81 L 134.75000000000003 -19.9 L 131.07000000000002 -19.9 Q 131.04000000000002 -20.61 131.04000000000002 -21.34 L 131.04000000000002 -21.34 L 131.04000000000002 -25.1 Q 131.04000000000002 -25.51 131.07000000000002 -25.51 L 131.07000000000002 -25.51 L 134.75000000000003 -25.51 L 134.75000000000003 -32.47 L 140.73000000000002 -32.47 L 140.73000000000002 -25.509999999999998 L 147.45000000000002 -25.509999999999998 L 147.45000000000002 -19.9 L 140.73000000000002 -19.9 L 140.73000000000002 -9.939999999999998 Q 140.73000000000002 -6.099999999999998 142.86 -5.569999999999998 L 142.86 -5.569999999999998 Q 143.54000000000002 -5.369999999999997 144.45000000000002 -5.369999999999997 z M 152.77 -12.55 L 152.77 -12.55 Q 152.77 -15.41 153.74 -17.85 Q 154.72 -20.290000000000003 156.5 -22.12 L 156.5 -22.12 Q 160.31 -26 166.46 -26 L 166.46 -26 Q 171.66 -26 174.81 -22.56 L 174.81 -22.56 Q 177.91 -19.24 177.91 -14.209999999999999 L 177.91 -14.209999999999999 Q 177.91 -12.28 177.62 -11.569999999999999 L 177.62 -11.569999999999999 Q 175.18 -10.889999999999999 167.69 -10.889999999999999 L 167.69 -10.889999999999999 L 159.09 -10.889999999999999 Q 159.73 -8.28 162.05 -6.8199999999999985 Q 164.36 -5.369999999999998 168.08 -5.369999999999998 L 168.08 -5.369999999999998 Q 171.96 -5.369999999999998 174.74 -6.759999999999998 L 174.74 -6.759999999999998 Q 175.47 -7.129999999999998 175.84 -7.4499999999999975 L 175.84 -7.4499999999999975 Q 175.79 -6.419999999999997 175.72 -5.349999999999998 L 175.72 -5.349999999999998 L 175.45 -1.5399999999999978 Q 173.58999999999997 -0.2699999999999978 169.44 0.2200000000000022 L 169.44 0.2200000000000022 Q 168.22 0.3700000000000022 167.1 0.3700000000000022 L 167.1 0.3700000000000022 Q 160.9 0.3700000000000022 156.85 -3.249999999999998 L 156.85 -3.249999999999998 Q 152.76999999999998 -6.879999999999997 152.76999999999998 -12.549999999999999 z M 171.42000000000002 -15.63 L 171.42000000000002 -15.63 Q 170.42000000000002 -20.87 165.71 -20.87 L 165.71 -20.87 Q 162 -20.87 160.07000000000002 -17.68 L 160.07000000000002 -17.68 Q 159.48000000000002 -16.7 159.16000000000003 -15.53 L 159.16000000000003 -15.53 Q 159.75000000000003 -15.5 160.61 -15.479999999999999 L 160.61 -15.479999999999999 L 162.41000000000003 -15.479999999999999 Q 163.32000000000002 -15.45 164.15000000000003 -15.45 L 164.15000000000003 -15.45 L 165.54000000000002 -15.45 Q 166.78000000000003 -15.45 167.98000000000002 -15.479999999999999 L 167.98000000000002 -15.479999999999999 L 169.98000000000002 -15.549999999999999 Q 170.79000000000002 -15.579999999999998 171.42000000000002 -15.629999999999999 z M 188.97000000000003 -17.77 L 188.97000000000003 -2.7300000000000004 Q 188.97000000000003 -0.6300000000000003 189.07000000000002 -4.440892098500626e-16 L 189.07000000000002 -4.440892098500626e-16 L 182.99 -4.440892098500626e-16 L 182.99 -25.51 L 188.97 -25.51 L 188.97 -23.630000000000003 Q 191.05 -26.000000000000004 193.33 -26.000000000000004 Q 195.61 -26.000000000000004 196.93 -25.440000000000005 L 196.93 -25.440000000000005 L 196.49 -18.870000000000005 L 196.39000000000001 -18.800000000000004 Q 195.54000000000002 -20.310000000000006 192.85000000000002 -20.310000000000006 L 192.85000000000002 -20.310000000000006 Q 191.83 -20.310000000000006 190.77 -19.620000000000005 Q 189.70000000000002 -18.920000000000005 188.97 -17.770000000000003 L 188.97 -17.770000000000003 z" stroke-linecap="round" />
</g>
		<g transform="matrix(2.9 0 0 2.9 -323.96 0)"  >
<path style="stroke: none; stroke-width: 1; stroke-dasharray: none; stroke-linecap: butt; stroke-dashoffset: 0; stroke-linejoin: miter; stroke-miterlimit: 4; fill: rgb(255,153,102); fill-rule: nonzero; opacity: 1;" vector-effect="non-scaling-stroke"  transform=" translate(-50, -50)" d="M 22.5 47.6 C 21.4 42.9 17.3 39.5 12.3 39.5 C 6.500000000000001 39.5 1.8000000000000007 44.2 1.8000000000000007 50 C 1.8000000000000007 55.8 6.500000000000001 60.5 12.3 60.5 C 17.3 60.5 21.5 57 22.5 52.4 L 29 52.4 C 29.5 56.5 31.1 60.199999999999996 33.5 63.2 L 28.9 67.8 C 24.799999999999997 65.3 19.4 65.8 15.899999999999999 69.3 C 11.799999999999999 73.39999999999999 11.799999999999999 80.1 15.899999999999999 84.1 C 20 88.19999999999999 26.7 88.19999999999999 30.7 84.1 C 34.2 80.6 34.7 75.19999999999999 32.2 71.1 L 36.800000000000004 66.5 C 39.800000000000004 68.9 43.6 70.5 47.60000000000001 71 L 47.60000000000001 77.5 C 42.900000000000006 78.6 39.50000000000001 82.7 39.50000000000001 87.7 C 39.50000000000001 93.5 44.20000000000001 98.2 50.00000000000001 98.2 C 55.800000000000004 98.2 60.50000000000001 93.5 60.50000000000001 87.7 C 60.50000000000001 82.7 57.00000000000001 78.5 52.400000000000006 77.5 L 52.400000000000006 71 C 56.50000000000001 70.5 60.2 68.9 63.2 66.5 L 67.8 71.1 C 65.3 75.19999999999999 65.8 80.6 69.3 84.1 C 73.39999999999999 88.19999999999999 80.1 88.19999999999999 84.1 84.1 C 88.19999999999999 80 88.19999999999999 73.3 84.1 69.3 C 80.6 65.8 75.19999999999999 65.3 71.1 67.8 L 66.5 63.199999999999996 C 68.9 60.199999999999996 70.5 56.4 71 52.39999999999999 L 77.5 52.39999999999999 C 78.6 57.099999999999994 82.7 60.49999999999999 87.7 60.49999999999999 C 93.5 60.49999999999999 98.2 55.79999999999999 98.2 49.99999999999999 C 98.2 44.199999999999996 93.5 39.49999999999999 87.7 39.49999999999999 C 82.7 39.49999999999999 78.5 42.99999999999999 77.5 47.599999999999994 L 71 47.599999999999994 C 70.5 43.49999999999999 68.9 39.8 66.5 36.8 L 71.1 32.199999999999996 C 75.19999999999999 34.699999999999996 80.6 34.199999999999996 84.1 30.699999999999996 C 88.19999999999999 26.599999999999994 88.19999999999999 19.899999999999995 84.1 15.899999999999995 C 80 11.799999999999995 73.3 11.799999999999995 69.3 15.899999999999995 C 65.8 19.399999999999995 65.3 24.799999999999997 67.8 28.899999999999995 L 63.199999999999996 33.49999999999999 C 60.199999999999996 31.099999999999994 56.4 29.499999999999993 52.39999999999999 28.999999999999993 L 52.39999999999999 22.499999999999993 C 57.099999999999994 21.39999999999999 60.49999999999999 17.299999999999994 60.49999999999999 12.299999999999994 C 60.49999999999999 6.499999999999994 55.79999999999999 1.7999999999999936 49.99999999999999 1.7999999999999936 C 44.199999999999996 1.7999999999999936 39.49999999999999 6.499999999999994 39.49999999999999 12.199999999999994 C 39.49999999999999 17.199999999999996 42.99999999999999 21.39999999999999 47.599999999999994 22.39999999999999 L 47.599999999999994 28.999999999999993 C 43.49999999999999 29.499999999999993 39.8 31.099999999999994 36.8 33.49999999999999 L 32.199999999999996 28.89999999999999 C 34.699999999999996 24.79999999999999 34.199999999999996 19.39999999999999 30.699999999999996 15.899999999999991 C 26.599999999999994 11.799999999999992 19.899999999999995 11.799999999999992 15.899999999999995 15.899999999999991 C 11.799999999999995 19.999999999999993 11.799999999999995 26.699999999999992 15.899999999999995 30.699999999999992 C 19.399999999999995 34.19999999999999 24.799999999999997 34.69999999999999 28.899999999999995 32.19999999999999 L 33.49999999999999 36.79999999999999 C 31.099999999999994 39.79999999999999 29.499999999999993 43.59999999999999 28.999999999999993 47.599999999999994 L 22.499999999999993 47.599999999999994 z M 12.2 54.9 C 9.5 54.9 7.299999999999999 52.699999999999996 7.299999999999999 50 C 7.299999999999999 47.3 9.5 45.1 12.2 45.1 C 14.899999999999999 45.1 17.1 47.300000000000004 17.1 50 C 17.1 52.7 14.900000000000002 54.9 12.200000000000001 54.9 z M 26.7 80.1 C 24.8 82 21.7 82 19.799999999999997 80.1 C 17.9 78.19999999999999 17.9 75.1 19.799999999999997 73.19999999999999 C 21.699999999999996 71.29999999999998 24.799999999999997 71.29999999999998 26.699999999999996 73.19999999999999 C 28.599999999999994 75.19999999999999 28.599999999999994 78.19999999999999 26.699999999999996 80.1 z M 73.3 73.3 C 75.2 71.39999999999999 78.3 71.39999999999999 80.2 73.3 C 82.10000000000001 75.2 82.10000000000001 78.3 80.2 80.2 C 78.3 82.10000000000001 75.2 82.10000000000001 73.3 80.2 C 71.39999999999999 78.2 71.39999999999999 75.2 73.3 73.3 z M 87.8 45.099999999999994 C 90.5 45.099999999999994 92.7 47.3 92.7 49.99999999999999 C 92.7 52.699999999999996 90.5 54.89999999999999 87.8 54.89999999999999 C 85.1 54.89999999999999 82.89999999999999 52.69999999999999 82.89999999999999 49.99999999999999 C 82.89999999999999 47.29999999999999 85.1 45.099999999999994 87.8 45.099999999999994 z M 73.3 19.899999999999995 C 75.2 17.999999999999996 78.3 17.999999999999996 80.2 19.899999999999995 C 82.10000000000001 21.799999999999994 82.10000000000001 24.899999999999995 80.2 26.799999999999997 C 78.3 28.699999999999996 75.2 28.699999999999996 73.3 26.799999999999997 C 71.39999999999999 24.799999999999997 71.39999999999999 21.799999999999997 73.3 19.9 z M 26.699999999999996 26.699999999999996 C 24.799999999999997 28.599999999999994 21.699999999999996 28.599999999999994 19.799999999999997 26.699999999999996 C 17.9 24.799999999999997 17.9 21.699999999999996 19.799999999999997 19.799999999999997 C 21.699999999999996 17.9 24.799999999999997 17.9 26.699999999999996 19.799999999999997 C 28.599999999999994 21.799999999999997 28.599999999999994 24.799999999999997 26.699999999999996 26.699999999999996 z M 54.89999999999999 87.8 C 54.89999999999999 90.5 52.69999999999999 92.7 49.99999999999999 92.7 C 47.3 92.7 45.099999999999994 90.5 45.099999999999994 87.8 C 45.099999999999994 85.1 47.3 82.89999999999999 49.99999999999999 82.89999999999999 C 52.69999999999999 82.89999999999999 54.89999999999999 85.1 54.89999999999999 87.8 z M 45.099999999999994 12.200000000000003 C 45.099999999999994 9.500000000000004 47.3 7.3000000000000025 49.99999999999999 7.3000000000000025 C 52.69999999999999 7.3000000000000025 54.89999999999999 9.500000000000004 54.89999999999999 12.200000000000003 C 54.89999999999999 14.900000000000002 52.69999999999999 17.1 49.99999999999999 17.1 C 47.3 17.1 45.099999999999994 14.900000000000002 45.099999999999994 12.200000000000001 z M 38.49999999999999 57.900000000000006 C 41.99999999999999 57.00000000000001 45.099999999999994 55.60000000000001 45.099999999999994 55.50000000000001 C 45.39999999999999 55.00000000000001 45.49999999999999 54.300000000000004 45.599999999999994 53.800000000000004 C 44.699999999999996 52.6 44.3 51.2 44.099999999999994 50.00000000000001 C 43.8 50.00000000000001 43.3 49.50000000000001 42.89999999999999 47.800000000000004 C 42.29999999999999 45.50000000000001 42.89999999999999 45.2 43.49999999999999 45.2 C 43.099999999999994 44 43.099999999999994 42.800000000000004 43.39999999999999 41.7 C 43.69999999999999 40.400000000000006 44.39999999999999 39.400000000000006 45.19999999999999 38.6 C 45.69999999999999 38.1 46.19999999999999 37.6 46.79999999999999 37.2 C 47.29999999999999 36.900000000000006 47.79999999999999 36.6 48.39999999999999 36.400000000000006 L 48.39999999999999 36.400000000000006 L 48.39999999999999 36.400000000000006 C 48.89999999999999 36.2 49.29999999999999 36.10000000000001 49.79999999999999 36.10000000000001 C 51.39999999999999 36.00000000000001 52.59999999999999 36.400000000000006 53.39999999999999 36.900000000000006 C 54.69999999999999 37.60000000000001 55.19999999999999 38.60000000000001 55.19999999999999 38.60000000000001 C 55.19999999999999 38.60000000000001 58.39999999999999 38.80000000000001 56.999999999999986 45.70000000000001 L 56.999999999999986 45.70000000000001 C 57.399999999999984 45.90000000000001 57.69999999999999 46.50000000000001 57.19999999999999 48.30000000000001 C 56.59999999999999 50.500000000000014 55.999999999999986 50.60000000000001 55.69999999999999 50.40000000000001 C 55.499999999999986 51.500000000000014 55.09999999999999 52.80000000000001 54.29999999999999 53.90000000000001 C 54.39999999999999 54.40000000000001 54.59999999999999 55.30000000000001 54.89999999999999 55.80000000000001 C 54.89999999999999 55.80000000000001 57.79999999999999 57.10000000000001 61.39999999999999 58.000000000000014 C 61.69999999999999 58.100000000000016 62.099999999999994 58.20000000000002 62.29999999999999 58.40000000000001 C 59.59999999999999 62.40000000000001 55.09999999999999 65.00000000000001 49.89999999999999 65.00000000000001 C 44.699999999999996 65.00000000000001 40.19999999999999 62.40000000000001 37.49999999999999 58.40000000000001 C 37.89999999999999 58.20000000000001 38.199999999999996 58.000000000000014 38.49999999999999 57.90000000000001 z" stroke-linecap="round" />
</g>
		<g transform="matrix(2.34 0 0 2.34 0 0)"  >
<rect style="stroke: none; stroke-width: 1; stroke-dasharray: none; stroke-linecap: butt; stroke-dashoffset: 0; stroke-linejoin: miter; stroke-miterlimit: 4; fill: none; fill-rule: nonzero; opacity: 1;" vector-effect="non-scaling-stroke"  x="-197.76" y="-59.583425" rx="0" ry="0" width="395.52" height="119.16685" />
</g>
</g>
</g>
</svg>